<mxfile host="app.diagrams.net" modified="2021-10-12T07:40:22.878Z" agent="5.0 (Windows NT 10.0; Win64; x64) AppleWebKit/537.36 (KHTML, like Gecko) Chrome/94.0.4606.71 Safari/537.36 Edg/94.0.992.38" etag="TpwZWXzkBVzIeLROU_nI" version="15.4.3" type="github">
  <diagram id="I3mg87YpZsXWBgo_0_fZ" name="Page-1">
    <mxGraphModel dx="868" dy="482" grid="1" gridSize="10" guides="1" tooltips="1" connect="1" arrows="1" fold="1" page="1" pageScale="1" pageWidth="850" pageHeight="1100" math="0" shadow="0">
      <root>
        <mxCell id="0" />
        <mxCell id="1" parent="0" />
        <mxCell id="Ru98Dl8UK7u_7-hxbwAJ-1" value="" style="rounded=1;whiteSpace=wrap;html=1;rotation=90;" vertex="1" parent="1">
          <mxGeometry x="307" y="170" width="236.25" height="145" as="geometry" />
        </mxCell>
        <mxCell id="Ru98Dl8UK7u_7-hxbwAJ-2" value="" style="rounded=1;whiteSpace=wrap;html=1;rotation=90;fillColor=#ffe6cc;strokeColor=#d79b00;" vertex="1" parent="1">
          <mxGeometry x="307" y="170" width="236.25" height="145" as="geometry" />
        </mxCell>
        <mxCell id="Ru98Dl8UK7u_7-hxbwAJ-6" value="" style="rounded=0;whiteSpace=wrap;html=1;fillColor=#008a00;strokeColor=#005700;fontColor=#ffffff;" vertex="1" parent="1">
          <mxGeometry x="365.13" y="142.5" width="120" height="200" as="geometry" />
        </mxCell>
        <mxCell id="Ru98Dl8UK7u_7-hxbwAJ-7" value="" style="rounded=0;whiteSpace=wrap;html=1;fillColor=#a0522d;strokeColor=#6D1F00;fontColor=#ffffff;" vertex="1" parent="1">
          <mxGeometry x="380" y="150" width="90" height="180" as="geometry" />
        </mxCell>
        <mxCell id="Ru98Dl8UK7u_7-hxbwAJ-8" value="" style="rounded=1;whiteSpace=wrap;html=1;fillColor=#ffe6cc;strokeColor=#d79b00;" vertex="1" parent="1">
          <mxGeometry x="393.25" y="120" width="150" height="240" as="geometry" />
        </mxCell>
      </root>
    </mxGraphModel>
  </diagram>
</mxfile>
